<svg version="1.1" id="Layer_1" xmlns="http://www.w3.org/2000/svg" xmlns:xlink="http://www.w3.org/1999/xlink" x="0px" y="0px" viewBox="0 0 321.3 62.1" style="enable-background:new 0 0 321.3 62.1;" xml:space="preserve">
 <g>
  <path d="M0,20.2v3.9h8.2v18.1h5.5V24.1H22v-3.9H0z M40.6,38.2c-1.4,0.5-2.7,0.5-3.2,0.5c-2.7,0-4.4-0.9-5.3-1.6
		c-0.5-0.5-0.9-1.1-1.1-1.2c-0.5-0.7-0.7-1.1-0.9-1.4c-0.7-1.2-0.7-2.7-0.7-3.2c0-1.4,0.4-5.3,4.4-7.1c1.4-0.7,2.7-0.7,3.2-0.7
		c2.3-0.2,4.6,0.7,6.2,2.5c1.8,2,2,4.4,2,5.3C45.3,32.5,44.9,36.7,40.6,38.2 M48.6,23.8c-0.5-0.7-1.1-1.2-1.8-1.6
		c-0.9-0.7-1.4-0.9-1.8-1.1c-2.5-1.2-5.9-1.6-8.5-1.6c-2.8,0.2-6.2,0.9-8.5,2.7c-1.6,1.2-4.1,3.9-4.1,8.9c0,3.4,1.2,5.7,2,6.7
		c1.6,2.3,5,5,11.5,5c4.3,0,7.1-1.2,8.7-2.3c3.4-2.3,4.1-5.5,4.4-6.9c0.2-1.2,0.4-2.3,0.4-2.7C50.9,27.2,49.5,24.7,48.6,23.8
		 M70.8,29.3c-0.5,0.2-1.4,0.2-1.4,0.2h-8.7v-5.3h8.5c1.1,0,2.3,0.2,3,1.1c0.5,0.7,0.5,1.4,0.5,1.6C72.8,28.6,71.5,29.1,70.8,29.3
		 M72.6,32.8c2.3-0.5,4.1-1.1,5.1-3.4c0.7-1.2,0.7-2.3,0.7-2.8c0-2.8-1.6-5.3-4.4-6.2c-0.9-0.4-1.8-0.4-3.6-0.5H55.4v22h5.5v-8.7
		h6.4l5.9,8.7h6.4C79.5,41.9,72.6,32.8,72.6,32.8z M100.3,20.1l-6.4,9.4l-6.4-9.4h-6.7l10.3,13.7v8.2h5.5v-8.2L107,20.1L100.3,20.1z
		 M189.4,38h8.2c0.7,0,1.2,0,2-0.2c0.9-0.4,1.6-0.9,1.6-2.7c0-0.4-0.2-1.2-0.7-2c-0.7-0.7-1.4-0.7-2.3-0.9h-8.9
		C189.2,32.3,189.4,38,189.4,38z M189.4,28.8h7.8c1.1,0,2.1,0,2.7-1.1c0.4-0.7,0.4-1.2,0.4-1.4c0-0.2,0-0.7-0.2-1.1
		c-0.5-1.4-2.1-1.2-2.5-1.2h-8.2V28.8z M198.1,20.1c1.6,0,3.4,0.2,5,0.9c1.1,0.7,2.5,1.8,2.5,4.6c0,0.9-0.2,3-2.7,4.3
		c-0.4,0.2-0.5,0.4-1.1,0.4c1.1,0.4,1.4,0.4,2,0.7c2.7,1.4,2.8,3.9,2.8,5c0,0.9-0.2,3.4-2.3,5c-1.6,1.2-3.6,1.2-5.5,1.2h-14.9V20.2
		C183.9,20.2,198.1,20.1,198.1,20.1z M216.4,20.1v13c0.2,1.6,0.4,3,1.8,4.1c1.8,1.2,4.3,1.2,4.8,1.2c0.5,0,2.7,0,4.1-0.9
		c1.1-0.7,1.6-1.4,1.8-1.8c0.4-0.5,0.4-0.9,0.4-2V20.1h5.5v12.8c0,2.1,0,3.7-1.1,5.5c-0.2,0.4-0.7,0.9-1.2,1.6
		c-2.3,2.1-6.4,2.8-9.2,2.8c-0.7,0-2.5,0-4.3-0.5c-4.4-0.9-6.2-3.2-6.9-5c-0.5-1.1-0.7-2.1-0.7-4.4V20.1
		C211.2,20.1,216.4,20.1,216.4,20.1z M245.5,29.3h8.7c0,0,0.9,0,1.4-0.2c0.7-0.2,2-0.7,2-2.5c0-0.4,0-1.1-0.5-1.6
		c-0.7-1.1-2-1.1-3-1.1h-8.5V29.3z M255.1,20.1c2,0,2.7,0.2,3.6,0.5c2.8,0.9,4.4,3.2,4.4,6.2c0,0.7,0,1.6-0.7,2.8
		c-0.9,2.3-2.8,2.8-5.1,3.2l6.6,9.1h-6.4l-5.9-8.9h-6.4v8.7h-5.5V20.1C239.6,20.1,255.1,20.1,255.1,20.1z M286.7,27
		c-0.4-0.5-0.9-1.4-2.3-2.3c-0.7-0.5-2.3-1.2-4.4-1.2c-0.5,0-2,0-3.4,0.7c-2.8,1.2-4.4,3.9-4.4,6.9c0,1.6,0.5,3.2,1.4,4.4
		c0.2,0.4,0.7,0.9,1.4,1.4c0.9,0.7,2.5,1.8,5.1,1.8c3.2,0,5-1.2,5.9-2.3c0.4-0.5,0.7-0.9,1.1-1.8l5.9-0.2c-0.4,1.1-0.5,1.6-0.9,2.1
		c-0.4,0.7-0.9,1.6-2.3,2.8c-1.8,1.6-4.6,3.2-10.1,3.2c-1.2,0-5.7,0-8.9-2.7c-3.9-2.8-4.1-7.5-4.1-9.1c0-2.3,0.5-4.6,1.8-6.4
		c0.5-0.7,0.9-1.1,1.4-1.6c0.9-0.7,1.1-0.9,1.6-1.2c1.4-0.9,4.4-2.3,8.7-2.3c1.2,0,5.5,0.2,8.9,2.5c2,1.2,2.8,2.7,3.2,3.6
		c0.2,0.4,0.4,0.7,0.5,0.9L286.7,27L286.7,27z M316,20.1v8.5h-13.3v-8.5h-5.5v21.8h5.5v-9.4H316v9.4h5.3V20.1H316z M112.9,31.1
		c0,17,13.8,31.1,31.1,31.1c17,0,31.1-13.8,31.1-31.1C175,14,161.2,0,144,0C126.7,0.2,112.9,14,112.9,31.1 M117,31.1
		c0-14.7,12.1-26.8,26.8-26.8s26.8,12.1,26.8,26.8s-12.1,26.8-26.8,26.8S117,46,117,31.1">
  </path>
  <path d="M148.2,32h7.6c2.3,0,3.6,0.5,4.4,2.5c0.7-1.8,2-2.5,3.9-2.5h0.9v9.9h-9.8c0.9-0.9,1.4-1.8,1.4-3c0-2.1-1.8-3.7-4.1-3.7
		c-2.7,0-4.4,1.6-4.4,3.7c0,1.4,0.9,2.5,2.3,3c-1.4,0.7-2.3,2-2.3,3.4c0,2.5,1.8,3.7,5.1,3.7c0.5,0,0.9,0,1.4-0.2v3.4h-6.4
		c-2.3,0-3.6-0.5-4.4-2.5c-0.9,2-2.1,2.5-4.4,2.5h-6.4v-3.4c0.5,0,0.9,0.2,1.4,0.2c3.4,0,5.1-1.2,5.1-3.7c0-1.6-0.9-2.7-2.3-3.4
		c1.4-0.5,2.3-1.6,2.3-3c0-2.1-1.6-3.7-4.3-3.7c-2.5,0-4.1,1.6-4.1,3.7c0,1.2,0.5,2.3,1.4,3H123V32h0.9c2.1,0,3.2,0.7,3.9,2.5
		c0.9-2,2.1-2.5,4.4-2.5h7.6c2.1,0,3.6,0.4,4.4,2.5C144.7,32.5,145.9,32,148.2,32 M139.3,30h-7.6c-2.3,0-3.6-0.5-4.4-2.5
		c-0.7,1.8-2,2.5-3.9,2.5h-0.9v-9.9h9.8c-0.9,0.9-1.4,1.8-1.4,3c0,2.1,1.8,3.7,4.1,3.7c2.7,0,4.4-1.6,4.4-3.7c0-1.4-0.9-2.5-2.3-3
		c1.4-0.7,2.3-2,2.3-3.4c0-2.5-1.8-3.7-5.1-3.7c-0.5,0-0.9,0-1.4,0.2V9.6h6.4c2.3,0,3.6,0.5,4.4,2.5c0.9-2,2.1-2.5,4.4-2.5h6.4V13
		c-0.5,0-0.9-0.2-1.4-0.2c-3.4,0-5.1,1.2-5.1,3.7c0,1.6,0.9,2.7,2.3,3.4c-1.4,0.5-2.3,1.6-2.3,3c0,2.1,1.6,3.7,4.3,3.7
		c2.5,0,4.1-1.6,4.1-3.7c0-1.2-0.5-2.3-1.4-3h9.8v9.9h-0.9c-2.1,0-3.2-0.7-3.9-2.5c-0.9,2-2.1,2.5-4.4,2.5h-7.6
		c-2.1,0-3.6-0.4-4.4-2.5C142.9,29.6,141.7,30,139.3,30">
  </path>
 </g>
</svg>